<svg version="1.2" xmlns="http://www.w3.org/2000/svg" viewBox="0 0 215 215" width="215" height="215"><style>.a{fill:#0092ca}.b{fill:#fff}.c{fill:#fff;stroke:#fff;stroke-linecap:round;stroke-width:4.3}</style><path fill-rule="evenodd" class="a" d="m28 0.4h158.6c15.2 0 27.6 12.3 27.6 27.6v158.5c0 15.3-12.4 27.6-27.6 27.6h-158.6c-15.3 0-27.6-12.3-27.6-27.6v-158.5c0-15.3 12.3-27.6 27.6-27.6z"/><path fill-rule="evenodd" class="b" d="m85.1 115.1c-6.5-0.6-12.4-1.1-17.7-1.1-10.6 0-20.8 1.3-30.4 3.2q-2.4 0.4-4.7 1v-69.1zm97.2 3.1q-2.3-0.6-4.8-1 0 0 0 0c-9.5-1.9-19.8-3.2-30.3-3.2-5.3 0-11.2 0.5-17.7 1.1l52.8-66zm-120.2 41.3c-6.8-0.7-10.7-2.6-13.2-5-2.9-3-4.8-8-4.9-16.6 7.1-1.3 14.5-2.1 22-2.2-3.1 4.9-3.5 14.2-3.9 23.8zm108.4-21.6c-0.1 8.6-2 13.6-4.9 16.6-2.4 2.4-6.4 4.3-13.1 5-0.4-9.6-0.9-18.9-3.9-23.8 7.5 0.1 14.8 0.9 21.9 2.2zm-40.5 6.4q-0.6-3.1-0.6-7v-0.2q3.3-0.4 6.4-0.7c-1.9 2.1-3.9 4.8-5.8 7.9zm-44.9-7.2v0.2q0 3.8-0.6 6.9c-1.9-3.1-3.9-5.7-5.7-7.8q3.1 0.3 6.3 0.7zm22.2 5.9l0.7-1c0.8 10.1 3.9 19.1 9.5 26.1-5.9 13.1-10.2 24.9-10.2 24.9 0 0-4.3-11.8-10.3-24.9 5.7-7 8.8-16 9.5-26.2zm75 37.8q0 6.7-4 10.5-4.3 3.5-10 3.5-5.5 0-9.8-3.5c-2.8-2.5-3.2-6-4.2-10.3 10.9-1.1 20-4.7 26.6-11.3q0.7-0.8 1.4-1.6zm-148.6-11.1c6.6 6.7 15.7 10.3 26.5 11.4-1 4.2-1.4 7.8-4.2 10.2q-4.2 3.5-9.7 3.5-5.8 0-10-3.5-4-3.7-4-10.5v-12.6q0.7 0.8 1.4 1.5z"/><path fill-rule="evenodd" class="b" d="m103.5 13q1.1-0.1 2.3 0c12.6 0.2 39.1 5.8 42.3 18.4 1.3 5.3 2.2 11.8 2.9 17.7q0 0 0 0c4.2 0.4 10.9 2.7 10.8 7.7l-7.4 14.9c0 0-5.5 15-52.3 14-1.5 0-0.6 0-2-0.1q-0.6 0-1.1-0.1-1.6 0-3-0.1-0.5-0.1-1-0.1-1.5-0.1-2.9-0.2-0.4-0.1-0.8-0.1-1.4-0.1-2.8-0.3-0.2 0-0.5-0.1-1.5-0.1-2.8-0.3-0.2 0-0.4-0.1-1.4-0.2-2.7-0.4-0.1 0-0.2-0.1-1.4-0.2-2.7-0.5 0 0-0.1 0-1.3-0.3-2.5-0.6c23.3 0.5 41.8-3.5 55.2-8.6q1.8-0.6 3.4-1.3 2.4-1 4.6-2.1 1.5-0.7 2.8-1.4 0.7-0.3 1.3-0.7 1.2-0.7 2.3-1.3 0.1-0.1 0.2-0.1 1.7-1 3.1-2 0 0 0 0 0-0.1 0-0.1 1-0.6 1.7-1.2 0.1 0 0.1-0.1 0 0 0 0c3.8-2.9 5.7-5.5 5.8-7 0-3-5.9-4.4-6.3-4.9q-0.1 0-0.1 0.1 0 0 0 0.1c-1 1.4-10.1 11.9-43.5 11.2-30.6-0.6-32.4-17.5-32.8-18.3q0 0 0 0l2.7-20c0 0 0.4-5.5 4.9-7.4 4.2-1.8 10.4-4.4 21.5-4.5zm2.2 5c-5.8-0.1-16.2 0.7-21.4 2 0 0 30.5 1.8 51.8 18.7-0.5-2.5-1.8-4.6-2.1-6.1q-0.2-1.2 0.1-2.4c0.4-2.2 2.3-3.7 4.3-3.9l0.3-0.1c0 0-12.1-7.9-33-8.2zm-34.7 35.1q0 0 0 0 0 0 0 0zm0 0c-0.5 1.4-1.1 2.9-1.6 4.3 1.5 6.8 9 17.8 35.2 18.3l2.4 0.1q1.2 0 2.5 0 0 0 0 0 0 0 0 0c-14.1 4.2-27.9 6.5-34.7 6.4-17.3-4.8-17.4-12.5-17.4-12.5 0.1-5.8 10.6-14.3 13.6-16.6zm4.7 29.3q0.1 0 0.2 0.1-0.1-0.1-0.2-0.1zm-0.9-0.2q0 0 0 0 0.5 0.1 0.9 0.2-0.5-0.1-0.9-0.2z"/><path class="c" d="m96.9 125c0.7-0.3 1.3-0.6 2.4-1 2.4-0.8 5.1-1.4 7.9-1.4 2.9 0 5.6 0.6 8 1.4 1.1 0.4 1.8 0.7 2.4 1 11.7-1.4 21.6-2.4 29.5-2.4 10 0 19.7 1.2 28.8 3q4.8 0.9 8.6 1.9c0.9 0.3 3 0.9 3.2 1 1.1 0.3 1.8 1.5 1.4 2.7-0.4 1.1-1.7 1.8-2.8 1.4-0.1 0-1.9-0.6-2.8-0.8v5.7c0 22.5-11.1 35.1-36.4 35.1-19.3 0-30.6-13.7-30.6-35.4v-6.7q0-0.6 0.2-1l-0.6-0.4c-0.4-0.2-1.1-0.6-2.3-1-2-0.7-4.2-1.1-6.6-1.1-2.3 0-4.5 0.4-6.5 1.1-1.1 0.4-1.9 0.8-2.3 1l-0.6 0.4q0.2 0.4 0.2 1v6.7c0 21.7-11.3 35.4-30.6 35.4-25.2 0-36.4-12.6-36.4-35.1l0.1-5.8c-0.9 0.3-2.8 0.9-2.9 0.9-1.2 0.4-2.4-0.3-2.7-1.4-0.4-1.2 0.2-2.4 1.3-2.7 0.2-0.1 2.4-0.7 3.3-1q3.8-1 8.6-1.9c9.1-1.8 18.8-3 28.7-3 8 0 17.9 1 29.5 2.4zm78.1 4.8c-8.8-1.7-18.2-2.8-27.9-2.8-7.3 0-16.3 0.7-26.9 2 0.4 0.4 0.6 0.9 0.6 1.5v6.7c0 19.5 9.6 31 26.3 31 22.8 0 32-10.5 32-30.7v-6.5q0-0.2 0-0.3-1.9-0.4-4.1-0.9zm-107.6-2.8c-9.6 0-19.1 1.1-27.9 2.8q-2.2 0.4-4.1 0.9 0 0.1 0 0.3v6.5c0 20.2 9.3 30.7 32 30.7 16.7 0 26.3-11.5 26.3-31v-6.7c0-0.6 0.2-1.1 0.6-1.5-10.7-1.3-19.6-2-26.9-2z"/></svg>